<svg id="Layer_1" data-name="Layer 1" xmlns="http://www.w3.org/2000/svg" viewBox="0 0 120 60"><defs><style>.cls-1{fill:#0177b5;}.cls-2{fill:#fff;}.cls-3{fill:none;}</style></defs><path class="cls-1" d="M109.3,17H87.18a1.9,1.9,0,0,0-1.92,1.87V41.11A1.9,1.9,0,0,0,87.18,43H109.3a1.9,1.9,0,0,0,1.92-1.87V18.89A1.9,1.9,0,0,0,109.3,17Z"/><path class="cls-2" d="M89.11,26.75H93V39.14H89.11ZM91,20.59a2.24,2.24,0,1,1-2.24,2.24A2.24,2.24,0,0,1,91,20.59m4.34,6.16h3.69v1.69h.05a4,4,0,0,1,3.64-2c3.9,0,4.62,2.57,4.62,5.9v6.8h-3.85v-6c0-1.44,0-3.29-2-3.29S99.22,31.39,99.22,33v6.13H95.38V26.74Z"/><rect class="cls-3" width="120" height="60"/><path class="cls-2" d="M20.2,35.45v3.69H8.78V20.86h4V35.45ZM22,26.74h3.84v12.4H22Zm1.92-6.15a2.23,2.23,0,1,1-2.23,2.23,2.23,2.23,0,0,1,2.23-2.23m26.22,6.15h4.71l-5,5.73,4.95,6.67H49.88L45.8,33h0v6.12H41.9V20.86h3.85V31.78Zm-22.17,0h3.7v1.7h.05a4,4,0,0,1,3.64-2c3.9,0,4.62,2.56,4.62,5.9v6.79H36.1v-6c0-1.44,0-3.28-2-3.28S31.79,31.39,31.79,33v6.13H27.94V26.75Zm35,4.75a2.31,2.31,0,0,0-2.36-2.36,2.57,2.57,0,0,0-2.72,2.36ZM66.19,37a6.78,6.78,0,0,1-5.27,2.46c-3.85,0-6.93-2.56-6.93-6.54s3.08-6.54,6.93-6.54c3.6,0,5.85,2.57,5.85,6.54v1.21H57.84a2.88,2.88,0,0,0,2.9,2.41A3.27,3.27,0,0,0,63.49,35Zm8.6-7.25a2.92,2.92,0,0,0-3.08,3.16,3.08,3.08,0,1,0,6.16,0,2.92,2.92,0,0,0-3.08-3.16m6.62,9.39H77.87V37.49h-.05A4.83,4.83,0,0,1,74,39.44c-3.7,0-6.13-2.67-6.13-6.44,0-3.46,2.15-6.65,5.69-6.65a4.64,4.64,0,0,1,4,1.65h0V20.86h3.85Z"/></svg>