<svg id="Layer_1" data-name="Layer 1" xmlns="http://www.w3.org/2000/svg" viewBox="0 0 791.98 224.68"><defs><style>.cls-1{fill:#fff;}</style></defs><path class="cls-1" d="M64.76,49.11c-16.2,6.78-34,26-39.66,50-7.13,30.48,22.53,43.38,25,39.15,2.86-5-5.32-6.65-7-22.47-2.18-20.43,7.32-43.26,19.27-53.27,2.23-1.86,2.12.73,2.12,5.52L64,169.59c0,21.72-.9,28.58-2.51,35.35s-4.26,11.51-2.27,13.3c2.22,2,11.71-2.76,17.2-10.42,6.59-9.2,8.89-20.24,9.31-32.23.5-14.45.48-37.38.5-50.47L86,56.87c-.1-5.18-14.47-10.61-21.25-7.77M640.39,150.75c-.52,11.29-3,20.12-6.12,26.34-6,12.06-18.47,15.8-23.76-1.53-2.88-9.44-3-25.21-.94-38.39,2.1-13.43,8-23.57,17.76-22.65s14.13,13.3,13.07,36.23ZM478.15,220.81c-.13,18.76-3.08,35.21-9.42,40-9,6.77-21.05,1.69-18.55-12,2.21-12.11,12.67-24.49,28-39.6l0,11.61Zm-2.45-70.17c-.55,10.29-3.22,20.62-6.13,26.46-6,12.05-18.55,15.82-23.75-1.53-3.56-11.86-2.71-27.2-.95-36.87,2.28-12.54,7.82-24.18,17.76-24.18,9.67,0,14.43,10.61,13.07,36.13Zm-94-.15c-.59,10.89-2.71,20-6.12,26.61-6.17,12-18.38,15.76-23.76-1.53-3.88-12.47-2.56-29.48-.94-38.67,2.39-13.63,8.39-23.29,17.76-22.37,9.62.94,14.29,13.3,13.06,36Zm430.71,12.72c-2.35,0-3.43,2.42-4.31,6.5-3.08,14.19-6.32,17.4-10.5,17.4-4.67,0-8.86-7-9.93-21.08-.85-11.06-.71-31.42.37-51.67.22-4.16-.93-8.27-12.09-12.33-4.8-1.74-11.78-4.31-15.25,4.08-9.82,23.7-13.66,42.52-14.57,50.16,0,.4-.53.48-.62-.45a391.66,391.66,0,0,1-2-40.62c0-4.56-1-8.44-6-11.62-3.27-2.06-13.18-5.71-16.75-1.37-3.1,3.55-6.68,13.1-10.4,24.42l-5.14,15.43.08-34.25a4.84,4.84,0,0,0-3.16-5c-3.3-1-9.82-2.56-12.6-2.56-3.41,0-4.25,1.91-4.25,4.69l-.54,55.28v3.19c-1.88,10.39-8,24.49-14.66,24.49s-9.8-5.89-9.8-32.84c0-15.71.47-22.55.7-33.92l.38-12.71c-.05-3.5-6.1-5.27-8.91-5.92a26.23,26.23,0,0,0-7.21-.8c-2.72.15-4.64,1.93-4.64,4.38V110c-3.5-5.5-9.12-9.33-12.87-10.44-10.08-3-20.61-.34-28.55,10.77-6.31,8.83-10.11,18.82-11.6,33.19a98.76,98.76,0,0,0,1.21,30.15c-2.35,10.16-6.71,14.32-11.49,14.32-6.94,0-12-11.32-11.38-30.9.39-12.87,3-21.91,5.78-35,1.2-5.57.23-8.49-2.22-11.28-2.25-2.57-7-3.88-13.91-2.27-4.89,1.15-11.9,2.39-18.3,3.34a38.43,38.43,0,0,0,.7-4.26c1.67-14.26-13.83-13.11-18.77-8.55-3,2.72-5,5.92-5.73,11.69a13.79,13.79,0,0,0,6.26,13.47c-2.45,11.2-8.45,25.85-14.65,36.44A157.48,157.48,0,0,1,495.93,175l0-5,.38-48.8.38-12.59c0-2.56-1.53-3.52-4.64-4.75a33,33,0,0,0-9.37-2.09c-4.25-.33-6.82,1.93-6.75,4.59,0,.51,0,3.6,0,3.6-3.5-5.5-9.13-9.32-12.88-10.43-10.08-3-20.61-.34-28.55,10.76-6.31,8.83-10.44,21.22-11.6,33.08-1.1,11.06-.89,20.46.6,28.37-1.6,7.93-6.22,16.22-11.43,16.22-6.66,0-10.46-5.9-10.46-32.84,0-15.72.48-22.56.71-33.92l.38-12.72c-.05-3.5-6.1-5.26-8.92-5.92a25.7,25.7,0,0,0-7.44-.78,4.79,4.79,0,0,0-4.39,4.22v4c-3.5-5.5-9.13-9.32-12.87-10.43-10.09-3-20.56-.3-28.55,10.76-5.22,7.22-9.44,15.22-11.6,32.92a109.92,109.92,0,0,0-.87,14.39C326,170.32,316.78,185,309.27,185c-4.4,0-8.59-8.53-8.59-26.71,0-24.21,1.5-58.67,1.76-62l11.33-.18c4.73,0,9,.06,15.33-.26,3.16-.16,6.21-11.52,2.94-12.92-1.48-.64-11.93-1.19-16.08-1.28-3.49-.08-13.19-.8-13.19-.8l1.07-25.29c.17-2-2.43-3-3.93-3.68a53.17,53.17,0,0,0-10.74-3.07c-5.32-1.1-7.74,0-8.21,4.47-.7,6.82-1.08,26.8-1.08,26.8-3.91,0-17.25-.77-21.16-.77-3.63,0-7.55,15.62-2.53,15.81l22.51.62-.28,49.19a52.87,52.87,0,0,1-16.61,29.48c2.78-12.66-2.9-22.17-13.12-30.22-3.77-3-11.2-8.59-19.52-14.74,0,0,4.82-4.75,9.1-14.3,3-6.77,3.16-14.51-4.27-16.22-12.28-2.82-22.4,6.2-25.42,15.82-2.34,7.46-1.09,13,3.49,18.74.33.42.69.85,1.07,1.28-2.77,5.34-6.58,12.54-9.8,18.11-9,15.49-15.72,27.74-20.82,27.74-4.09,0-4-12.44-4-24.08,0-10,.74-25.13,1.33-40.75.2-5.17-2.39-8.11-6.72-10.78-2.63-1.62-8.25-4.8-11.5-4.8-4.87,0-18.92.66-32.19,39.05-1.67,4.84-5,13.66-5,13.66l.29-46.17a3.23,3.23,0,0,0-1.9-2.85c-2.24-1.21-8.2-3.69-13.52-3.69q-3.79,0-3.8,3.52l-.46,72.23c0,5.49.14,11.9.69,14.69a15.41,15.41,0,0,0,2.5,6.44,7.09,7.09,0,0,0,4.4,2.81c1.92.4,12.45,1.75,13-2.27.65-4.82.68-10,6.21-29.49,8.6-30.28,19.82-45.05,25.1-50.3.92-.92,2-1,1.92.53l-1.55,37.32c-1.43,37.72,5.44,44.71,15.24,44.71,7.5,0,18.08-7.46,29.4-26.32l18.86-31.6L232,152.72c9,8.5,11.89,16.57,9.94,24.23-1.49,5.86-7.11,11.9-17.1,6-2.92-1.71-4.16-3-7.09-5-1.57-1-4-1.34-5.42-.26a19.33,19.33,0,0,0-7.11,10.86c-1.19,4.32,3.14,6.61,7.63,8.6,3.87,1.72,12.18,3.28,17.48,3.46,20.65.7,37.18-10,48.7-37.47,2.06,23.75,10.83,37.19,26.07,37.19,10.19,0,20.4-13.17,24.87-26.13A46,46,0,0,0,335.57,188c11.75,18.6,34.53,14.6,46-1.2,3.54-4.88,4.08-6.64,4.08-6.64,1.67,14.92,13.68,20.13,20.56,20.13,7.7,0,15.65-3.64,21.23-16.19a40.52,40.52,0,0,0,2.14,3.9c11.75,18.6,34.53,14.6,46-1.2.48-.67,1-1.34,1.42-2l.33,9.8-10.53,9.66c-17.64,16.18-31.05,28.46-32,42.76-1.27,18.23,13.51,25,24.7,25.89,11.88.94,22-5.62,28.3-14.8,5.5-8.09,9.1-25.48,8.83-42.66l-.41-25a200.14,200.14,0,0,0,19.61-26.94c7-11.61,14.52-27.19,18.36-39.32,0,0,6.53,0,13.49-.4,2.23-.15,2.87.31,2.46,1.94-.5,2-8.8,34-1.22,55.32,5.18,14.6,16.87,19.3,23.8,19.3,8.12,0,15.88-6.13,20-15.23a30.64,30.64,0,0,0,1.59,2.9c11.75,18.61,34.45,14.58,46-1.19a47.39,47.39,0,0,0,4.08-6.64c2.47,15.44,14.48,20.21,21.35,20.21,7.17,0,14-2.94,19.48-16,.23,5.75.6,10.45,1.17,11.93.35.9,2.38,2,3.87,2.59,6.55,2.43,13.23,1.28,15.7.78,1.71-.35,3-1.72,3.23-5.27.48-9.32.18-25,3-36.61,4.74-19.53,9.16-27.1,11.26-30.85,1.17-2.1,2.5-2.45,2.55-.22.1,4.5.32,17.71,2.16,35.46,1.35,13,3.15,20.77,4.53,23.21,4,7,8.84,7.32,12.8,7.32,2.53,0,7.82-.7,7.35-5.14-.23-2.17.17-15.56,4.84-34.8a170.67,170.67,0,0,1,10-28.06c.68-1.53,1-.32,1-.09-.38,8.65-1.25,36.95,2.27,52.43,4.78,21,18.6,23.31,23.42,23.31,10.28,0,18.69-7.82,21.52-28.4.68-5-.33-8.78-3.35-8.78" transform="translate(-24 -48.32)"/></svg>