<svg id="Layer_1" data-name="Layer 1" xmlns="http://www.w3.org/2000/svg" viewBox="0 0 120 60"><defs><style>.cls-1{fill:#fffc00;}.cls-2{fill:none;}.cls-3{fill:#fff;}</style></defs><path d="M19.76,19.19a6.36,6.36,0,0,1,2.58.55,5.74,5.74,0,0,1,3,3.09,6.42,6.42,0,0,1,.3,2.5l-.05,1.43-.07,1.11a1,1,0,0,0,0,.29c0,.18.33.3.49.35a2,2,0,0,0,1.28-.11,1.7,1.7,0,0,1,.73-.2,1,1,0,0,1,.55.24.29.29,0,0,1,0,.43,2.24,2.24,0,0,1-.95.53,6.89,6.89,0,0,0-1.07.4,1.56,1.56,0,0,0-.76.8,1.59,1.59,0,0,0,.15,1.24A8.92,8.92,0,0,0,27,33.7,6.81,6.81,0,0,0,30.33,36l.59.14c.09,0,.14,0,.11.08s0,0,0,0a.81.81,0,0,1-.19.18,4.1,4.1,0,0,1-1.36.53l-.66.14a3.23,3.23,0,0,0-.69.13c-.34.15-.39.65-.46,1l-.08.36c0,.11,0,.17-.14.17a2.9,2.9,0,0,1-.59-.09,7,7,0,0,0-1.37-.11,4.17,4.17,0,0,0-1.49.26,6.5,6.5,0,0,0-1.24.75,6.32,6.32,0,0,1-2.23,1.15,4.58,4.58,0,0,1-1.28.09,3.77,3.77,0,0,1-1.33-.28,13.81,13.81,0,0,1-2.2-1.35,3.59,3.59,0,0,0-1.34-.55,5.83,5.83,0,0,0-1.56,0l-.6.09a2.59,2.59,0,0,1-.61.1c-.1,0-.1,0-.12-.12l-.1-.4a4.52,4.52,0,0,0-.15-.61.71.71,0,0,0-.3-.38,2.65,2.65,0,0,0-.68-.14,9.63,9.63,0,0,1-1.18-.28,2.39,2.39,0,0,1-1-.49L8,36.27s0,0,0,0,0-.07.08-.09a6.33,6.33,0,0,0,1.13-.32A6.76,6.76,0,0,0,11,34.71,8.73,8.73,0,0,0,13,32.25a3.19,3.19,0,0,0,.4-1c.14-.88-.59-1.38-1.32-1.65a6.79,6.79,0,0,1-1.16-.45c-.16-.09-.49-.28-.46-.51s.24-.3.39-.36a.81.81,0,0,1,.31-.06,1.2,1.2,0,0,1,.36.13,2.73,2.73,0,0,0,1.38.23,1.19,1.19,0,0,0,.64-.3.19.19,0,0,0,.07-.11,1.67,1.67,0,0,0,0-.31l-.05-.74,0-2.84a5.47,5.47,0,0,1,.2-1.2,4.82,4.82,0,0,1,.52-1.1,5.7,5.7,0,0,1,1.5-1.63,6.14,6.14,0,0,1,3-1.11c.34,0,.69,0,1,0M2.82,41.36a5.35,5.35,0,0,0,5.34,5.35H30.89a5.36,5.36,0,0,0,5.35-5.35V18.64a5.36,5.36,0,0,0-5.35-5.35H8.16a5.35,5.35,0,0,0-5.34,5.35V41.36"/><path class="cls-1" d="M3.44,18.64a4.72,4.72,0,0,1,4.72-4.72H30.89a4.72,4.72,0,0,1,4.72,4.72h0V41.36a4.72,4.72,0,0,1-4.72,4.72H8.16a4.71,4.71,0,0,1-4.71-4.72h0V18.64m16.31.05a9.32,9.32,0,0,0-2.35.27A6.25,6.25,0,0,0,14.26,21a5.46,5.46,0,0,0-1.12,2.13A10.47,10.47,0,0,0,13,25.83l.07,1.4,0,.34c0,.08.06.37,0,.42s-.39.1-.52.09A2,2,0,0,1,11.9,28a3.41,3.41,0,0,0-.68-.23,1.34,1.34,0,0,0-1.06.39c-.44.47-.16,1,.3,1.34a4.5,4.5,0,0,0,1.21.53,2.46,2.46,0,0,1,1,.52c.39.38.17.89,0,1.31a8.1,8.1,0,0,1-.55.95,6.94,6.94,0,0,1-2.76,2.48,5,5,0,0,1-1.07.37,1.67,1.67,0,0,0-.55.16.51.51,0,0,0-.2.52c.1.51.71.78,1.14.94a7.78,7.78,0,0,0,1.17.32l.72.14c.12,0,.18,0,.22.12s.05.19.08.28l.16.68a.65.65,0,0,0,.21.38c.33.26.83.06,1.19,0a4.21,4.21,0,0,1,2.86.33c.75.43,1.39,1,2.17,1.38a5,5,0,0,0,5-.47,6.2,6.2,0,0,1,2.44-1.3,5.44,5.44,0,0,1,1.56,0,5.1,5.1,0,0,0,1.1.14c.49,0,.54-.58.63-1a1.6,1.6,0,0,1,.14-.53c.06-.08.2-.07.31-.09l.4-.07a5.47,5.47,0,0,0,2.05-.69,1.19,1.19,0,0,0,.43-.46.56.56,0,0,0,0-.56c-.13-.18-.31-.19-.51-.23a5.56,5.56,0,0,1-2-.87,7.84,7.84,0,0,1-2.26-2.5l-.32-.63a1,1,0,0,1-.06-1.05,1.93,1.93,0,0,1,.95-.57,6.63,6.63,0,0,0,1.21-.48,1.29,1.29,0,0,0,.65-.73c.2-.87-1-1.31-1.67-1A1.87,1.87,0,0,1,26.1,28a.3.3,0,0,1-.1,0s0-.09,0-.15l.06-1a18.56,18.56,0,0,0,0-2.79,5.59,5.59,0,0,0-.23-1.22,4.82,4.82,0,0,0-.52-1.1,6.3,6.3,0,0,0-1.48-1.69,6.94,6.94,0,0,0-4.09-1.38m-8-3.91a.54.54,0,1,0,.53.54.54.54,0,0,0-.53-.54m1.73,0a.54.54,0,1,0,.53.54.54.54,0,0,0-.53-.54m5.18,0a.54.54,0,1,0,.53.54.54.54,0,0,0-.53-.54m1.73,0a.54.54,0,1,0,.53.54.54.54,0,0,0-.53-.54m6.91,0a.54.54,0,1,0,.53.54.54.54,0,0,0-.53-.54M6.57,16.51a.54.54,0,1,0,.54.53.54.54,0,0,0-.54-.53m5.18,0a.54.54,0,1,0,.54.53.53.53,0,0,0-.54-.53m1.73,0A.54.54,0,1,0,14,17a.54.54,0,0,0-.54-.53m5.18,0a.54.54,0,1,0,.54.53.53.53,0,0,0-.54-.53m1.73,0a.54.54,0,1,0,.54.53.54.54,0,0,0-.54-.53m1.73,0a.54.54,0,1,0,.53.53.54.54,0,0,0-.53-.53m5.18,0a.54.54,0,1,0,.53.53.54.54,0,0,0-.53-.53m3.45,0a.54.54,0,1,0,.54.53.53.53,0,0,0-.54-.53m1.73,0A.54.54,0,1,0,33,17a.54.54,0,0,0-.54-.53M6.57,18.24a.54.54,0,1,0,.54.53.54.54,0,0,0-.54-.53m1.73,0a.54.54,0,1,0,.53.53.54.54,0,0,0-.53-.53m17.27,0a.54.54,0,1,0,.54.53.53.53,0,0,0-.54-.53m1.73,0a.54.54,0,1,0,.53.53.54.54,0,0,0-.53-.53M4.84,20a.54.54,0,1,0,.54.54A.54.54,0,0,0,4.84,20m6.91,0a.54.54,0,1,0,.54.54.54.54,0,0,0-.54-.54M27.3,20a.54.54,0,1,0,.54.54A.54.54,0,0,0,27.3,20m3.46,0a.54.54,0,1,0,.53.54.54.54,0,0,0-.53-.54m1.72,0a.54.54,0,1,0,.54.54.54.54,0,0,0-.54-.54m1.73,0a.54.54,0,1,0,.54.54.54.54,0,0,0-.54-.54M10,21.69a.54.54,0,1,0,.53.54.54.54,0,0,0-.53-.54m20.73,0a.54.54,0,1,0,.53.54.54.54,0,0,0-.53-.54M4.85,23.42a.54.54,0,1,0,.53.53.54.54,0,0,0-.53-.53m1.72,0a.54.54,0,1,0,.54.53.53.53,0,0,0-.54-.53m5.19,0a.54.54,0,1,0,.53.53.54.54,0,0,0-.53-.53m15.54,0a.54.54,0,1,0,.54.53.53.53,0,0,0-.54-.53m3.46,0a.54.54,0,1,0,.53.53.54.54,0,0,0-.53-.53m1.72,0A.54.54,0,1,0,33,24a.53.53,0,0,0-.54-.53M8.3,25.15a.54.54,0,1,0,.54.53.54.54,0,0,0-.54-.53m3.46,0a.54.54,0,1,0,.53.53.54.54,0,0,0-.53-.53m17.27,0a.54.54,0,1,0,.53.53.54.54,0,0,0-.53-.53m1.73,0a.54.54,0,1,0,.53.53.54.54,0,0,0-.53-.53m3.45,0a.54.54,0,0,0-.54.53.54.54,0,0,0,.54.54.54.54,0,1,0,0-1.07M4.84,26.87a.54.54,0,0,0-.53.54.54.54,0,1,0,.53-.54m27.64,0a.54.54,0,0,0-.53.54.54.54,0,1,0,.53-.54m1.73,0a.54.54,0,0,0-.54.54.54.54,0,0,0,.54.54.54.54,0,1,0,0-1.08M4.84,28.6a.54.54,0,1,0,.54.54.54.54,0,0,0-.54-.54m1.73,0a.54.54,0,0,0-.54.54.54.54,0,1,0,.54-.54m1.73,0a.54.54,0,1,0,.53.54.54.54,0,0,0-.53-.54m24.18,0a.54.54,0,1,0,.54.54.54.54,0,0,0-.54-.54M4.84,30.33a.54.54,0,1,0,.54.53.53.53,0,0,0-.54-.53m1.73,0a.54.54,0,1,0,.54.53.54.54,0,0,0-.54-.53m25.91,0a.54.54,0,0,0-.54.53.54.54,0,0,0,.54.54.54.54,0,1,0,0-1.07m1.73,0a.54.54,0,1,0,.53.53.54.54,0,0,0-.53-.53M29,32.06a.54.54,0,1,0,.53.53.54.54,0,0,0-.53-.53m5.18,0a.54.54,0,1,0,.53.53.54.54,0,0,0-.53-.53M6.57,33.78a.54.54,0,0,0-.54.54.54.54,0,0,0,1.08,0,.54.54,0,0,0-.54-.54m1.73,0a.54.54,0,0,0-.54.54.54.54,0,0,0,1.07,0,.54.54,0,0,0-.53-.54m22.45,0a.54.54,0,0,0-.53.54.54.54,0,0,0,1.07,0,.54.54,0,0,0-.54-.54m3.46,0a.54.54,0,0,0-.54.54.54.54,0,0,0,1.07,0,.54.54,0,0,0-.53-.54m0,1.73a.54.54,0,1,0,.53.54.54.54,0,0,0-.53-.54m-1.73,1.73a.54.54,0,0,0-.54.53.54.54,0,0,0,.54.54.54.54,0,1,0,0-1.07m1.73,0a.54.54,0,1,0,.53.53.54.54,0,0,0-.53-.53M4.84,39a.54.54,0,1,0,.54.53A.53.53,0,0,0,4.84,39m1.73,0a.54.54,0,1,0,.54.53A.53.53,0,0,0,6.57,39m24.19,0a.54.54,0,1,0,.53.53.53.53,0,0,0-.53-.53M10,40.69a.54.54,0,0,0-.54.54.54.54,0,0,0,1.07,0,.54.54,0,0,0-.53-.54m1.72,0a.54.54,0,0,0-.53.54.54.54,0,0,0,1.07,0,.54.54,0,0,0-.54-.54m1.73,0a.54.54,0,0,0-.54.54.54.54,0,0,0,1.08,0,.54.54,0,0,0-.54-.54m1.73,0a.54.54,0,0,0-.54.54.54.54,0,0,0,1.07,0,.54.54,0,0,0-.53-.54m8.63,0a.54.54,0,0,0-.53.54.54.54,0,0,0,1.07,0,.54.54,0,0,0-.54-.54m3.46,0a.54.54,0,0,0-.54.54.54.54,0,0,0,1.07,0,.54.54,0,0,0-.53-.54m5.18,0a.54.54,0,0,0-.54.54.54.54,0,0,0,1.08,0,.54.54,0,0,0-.54-.54M6.57,42.42a.54.54,0,1,0,.54.54.54.54,0,0,0-.54-.54m5.18,0a.54.54,0,1,0,.54.54.54.54,0,0,0-.54-.54m1.73,0A.54.54,0,1,0,14,43a.54.54,0,0,0-.54-.54m1.73,0a.54.54,0,1,0,.53.54.54.54,0,0,0-.53-.54m1.72,0a.54.54,0,1,0,.54.54.54.54,0,0,0-.54-.54m6.9,0a.54.54,0,1,0,.54.54.54.54,0,0,0-.54-.54m3.46,0a.54.54,0,1,0,.53.54.54.54,0,0,0-.53-.54m3.45,0a.54.54,0,1,0,.54.54.54.54,0,0,0-.54-.54m1.73,0A.54.54,0,1,0,33,43a.54.54,0,0,0-.54-.54m-19,1.73a.54.54,0,1,0,.54.53.54.54,0,0,0-.54-.53m1.73,0a.54.54,0,1,0,.53.53.54.54,0,0,0-.53-.53m3.45,0a.54.54,0,1,0,.54.53.53.53,0,0,0-.54-.53m1.73,0a.54.54,0,1,0,.54.53.54.54,0,0,0-.54-.53m1.73,0a.54.54,0,1,0,.53.53.54.54,0,0,0-.53-.53m1.72,0a.54.54,0,1,0,.54.53.53.53,0,0,0-.54-.53m1.73,0a.54.54,0,1,0,.54.53.54.54,0,0,0-.54-.53"/><rect class="cls-2" width="120" height="60"/><path class="cls-3" d="M40.05,35.5V32.67a5.32,5.32,0,0,0,1.67,1,5.5,5.5,0,0,0,1.82.32,3.76,3.76,0,0,0,.94-.1,2,2,0,0,0,.67-.27,1.18,1.18,0,0,0,.4-.4.93.93,0,0,0,.13-.51,1,1,0,0,0-.21-.66,2.13,2.13,0,0,0-.58-.54A6.79,6.79,0,0,0,44,31l-1.08-.46A5.75,5.75,0,0,1,40.72,29,3.34,3.34,0,0,1,40,26.88a3.47,3.47,0,0,1,.4-1.7A3.36,3.36,0,0,1,41.47,24a5,5,0,0,1,1.59-.68A7.61,7.61,0,0,1,45,23.12a11.36,11.36,0,0,1,1.75.12,7,7,0,0,1,1.41.36v2.64a5.9,5.9,0,0,0-.69-.4,4.23,4.23,0,0,0-.78-.27,5.29,5.29,0,0,0-.79-.17,6,6,0,0,0-.74,0,4.06,4.06,0,0,0-.89.09,2.18,2.18,0,0,0-.67.26,1.34,1.34,0,0,0-.42.4,1,1,0,0,0-.15.53,1,1,0,0,0,.17.57,1.93,1.93,0,0,0,.47.48,6.21,6.21,0,0,0,.75.44l1,.44a11.64,11.64,0,0,1,1.37.68,4.49,4.49,0,0,1,1,.81,3.21,3.21,0,0,1,.67,1,3.47,3.47,0,0,1,.23,1.35,3.72,3.72,0,0,1-.4,1.78,3.37,3.37,0,0,1-1.09,1.16,4.69,4.69,0,0,1-1.61.64,9.14,9.14,0,0,1-1.93.2,11,11,0,0,1-2-.18,6.24,6.24,0,0,1-1.63-.53ZM59.24,36H56.45V31q0-2.1-1.5-2.1a1.48,1.48,0,0,0-1.19.55,2.15,2.15,0,0,0-.47,1.42V36H50.5v-9h2.79v1.43h0a3.19,3.19,0,0,1,2.9-1.65q3,0,3,3.73ZM69,36H66.33v-1.3h0A2.94,2.94,0,0,1,63.6,36.2a2.8,2.8,0,0,1-2.07-.75,2.65,2.65,0,0,1-.76-2q0-2.64,3.12-3l2.46-.33c0-1-.54-1.48-1.61-1.48a5.53,5.53,0,0,0-3.08,1v-2.1a6.77,6.77,0,0,1,1.6-.53,8.63,8.63,0,0,1,1.84-.23q3.87,0,3.87,3.86V36ZM66.35,32.3v-.6l-1.64.21c-.91.12-1.36.53-1.36,1.23a1,1,0,0,0,.33.78,1.3,1.3,0,0,0,.89.31,1.62,1.62,0,0,0,1.28-.55,2,2,0,0,0,.5-1.37ZM74,34.92h0v5.22H71.18V26.93H74v1.36h0a3.3,3.3,0,0,1,2.9-1.58,3.25,3.25,0,0,1,2.72,1.21,5.1,5.1,0,0,1,1,3.28,5.53,5.53,0,0,1-1.12,3.63,3.64,3.64,0,0,1-3,1.37A2.85,2.85,0,0,1,74,34.93Zm-.08-3.7V32a2.27,2.27,0,0,0,.5,1.53,1.58,1.58,0,0,0,1.3.59,1.73,1.73,0,0,0,1.48-.74,3.58,3.58,0,0,0,.52-2.1c0-1.6-.62-2.38-1.85-2.38a1.71,1.71,0,0,0-1.4.64,2.57,2.57,0,0,0-.55,1.72Zm15.34,4.43a5.57,5.57,0,0,1-2.73.55,4.59,4.59,0,0,1-3.38-1.27,4.37,4.37,0,0,1-1.3-3.26A4.8,4.8,0,0,1,83.23,28a5.12,5.12,0,0,1,3.7-1.33,4.8,4.8,0,0,1,2.32.42V29.5a3.14,3.14,0,0,0-2-.65,2.56,2.56,0,0,0-1.9.7,2.61,2.61,0,0,0-.7,1.94,2.54,2.54,0,0,0,.67,1.88,2.44,2.44,0,0,0,1.84.69,3.63,3.63,0,0,0,2-.66ZM99.77,36H97V30.83c0-1.32-.49-2-1.45-2a1.46,1.46,0,0,0-1.2.55,2.13,2.13,0,0,0-.46,1.42V36H91.09V22.58h2.79v5.7h0a3.17,3.17,0,0,1,2.79-1.56c2,0,3.07,1.24,3.07,3.7Zm9.73,0h-2.64v-1.3h0a3,3,0,0,1-2.7,1.52,2.81,2.81,0,0,1-2.07-.75,2.68,2.68,0,0,1-.75-2q0-2.64,3.11-3l2.46-.33c0-1-.54-1.48-1.61-1.48a5.48,5.48,0,0,0-3.07,1v-2.1a7,7,0,0,1,1.59-.53,8.64,8.64,0,0,1,1.85-.23q3.87,0,3.87,3.86Zm-2.62-3.68v-.6l-1.64.21c-.91.12-1.36.53-1.36,1.23a1,1,0,0,0,.33.78,1.3,1.3,0,0,0,.89.31,1.62,1.62,0,0,0,1.28-.55,2,2,0,0,0,.5-1.37Zm10.3,3.57a4.07,4.07,0,0,1-1.86.33c-2,0-2.95-1-2.95-3.07V29H110.9V26.93h1.47V25l2.78-.8v2.75h2V29h-2v3.66c0,.94.37,1.41,1.12,1.41a1.92,1.92,0,0,0,.91-.26v2.07Z"/></svg>