<svg id="Layer_1" data-name="Layer 1" xmlns="http://www.w3.org/2000/svg" viewBox="0 0 120 60"><defs><style>.cls-1{fill:red;}.cls-2{fill:#fff;}.cls-3{fill:none;}</style></defs><path class="cls-1" d="M39.48,21.61a4.38,4.38,0,0,0-3.09-3.09c-2.7-.74-13.6-.74-13.6-.74s-10.9,0-13.6.76A4.4,4.4,0,0,0,6.1,21.63,45.65,45.65,0,0,0,5.38,30a44.73,44.73,0,0,0,.74,8.39,4.38,4.38,0,0,0,3.09,3.09c2.71.74,13.6.74,13.6.74s10.9,0,13.61-.74a4.37,4.37,0,0,0,3.08-3.09c.74-2.71.74-8.39.74-8.39A45.35,45.35,0,0,0,39.48,21.61Z"/><path class="cls-2" d="M28.36,30l-9-5.24V35.24Z"/><rect class="cls-3" width="120" height="60"/><path class="cls-2" d="M56,40a3.79,3.79,0,0,1-1.48-2.17,14.28,14.28,0,0,1-.42-3.91V31.7a12.64,12.64,0,0,1,.49-4,3.86,3.86,0,0,1,1.57-2.17,5.09,5.09,0,0,1,2.77-.69,4.68,4.68,0,0,1,2.71.69,4.11,4.11,0,0,1,1.5,2.17,13.48,13.48,0,0,1,.47,3.94v2.21a13.38,13.38,0,0,1-.47,3.92A4,4,0,0,1,61.59,40a5.09,5.09,0,0,1-2.8.69A4.9,4.9,0,0,1,56,40Zm3.87-2.39a7.18,7.18,0,0,0,.29-2.44V30.4A7,7,0,0,0,59.82,28a1,1,0,0,0-1-.76,1,1,0,0,0-1,.76,7,7,0,0,0-.29,2.39v4.77a7.87,7.87,0,0,0,.27,2.44,1,1,0,0,0,1,.74A1,1,0,0,0,59.82,37.61ZM108.87,34v.78L109,37a2.13,2.13,0,0,0,.35,1.07,1,1,0,0,0,.85.34,1,1,0,0,0,1.06-.61,5.12,5.12,0,0,0,.31-2l3,.18a2.76,2.76,0,0,1,0,.54,4,4,0,0,1-1.17,3.15,4.68,4.68,0,0,1-3.26,1.06,3.9,3.9,0,0,1-3.56-1.59,9.43,9.43,0,0,1-1-4.93v-2.7a9.41,9.41,0,0,1,1-5,4.08,4.08,0,0,1,3.63-1.58,4.72,4.72,0,0,1,2.7.65,3.48,3.48,0,0,1,1.35,2,14.49,14.49,0,0,1,.38,3.78v2.62h-5.75Zm.44-6.44a2,2,0,0,0-.35,1.05,17.91,17.91,0,0,0-.09,2.24V31.9h2.5V30.81a18.32,18.32,0,0,0-.09-2.24,2,2,0,0,0-.36-1.08,1,1,0,0,0-.8-.31A1.06,1.06,0,0,0,109.31,27.52ZM47.58,33.67,43.67,19.53h3.42l1.36,6.4c.36,1.59.61,2.93.79,4h.09c.11-.81.38-2.13.78-4l1.41-6.42h3.42L51,33.65v6.78H47.6V33.67Z"/><path id="B" class="cls-2" d="M74.66,25.17V40.45H72l-.29-1.88h-.07a3.54,3.54,0,0,1-3.29,2.13,2.56,2.56,0,0,1-2.23-1,5.22,5.22,0,0,1-.72-3.11V25.17h3.45V36.38A3.27,3.27,0,0,0,69,37.83a.78.78,0,0,0,.74.43,1.52,1.52,0,0,0,.85-.27,1.75,1.75,0,0,0,.6-.7V25.17Z"/><path id="B-2" data-name="B" class="cls-2" d="M92.31,25.17V40.45H89.62l-.29-1.88h-.06A3.55,3.55,0,0,1,86,40.7a2.56,2.56,0,0,1-2.24-1A5.29,5.29,0,0,1,83,36.58V25.17h3.45V36.38a3.42,3.42,0,0,0,.22,1.45.79.79,0,0,0,.74.43,1.52,1.52,0,0,0,.85-.27,1.86,1.86,0,0,0,.61-.7V25.17Z"/><path class="cls-2" d="M84,22.3H80.58V40.45H77.23V22.3H73.81V19.53H84V22.3Zm19.67,5.31a4,4,0,0,0-1-2.11,2.78,2.78,0,0,0-1.93-.65,3.12,3.12,0,0,0-1.76.54A3.69,3.69,0,0,0,97.7,26.8h0v-8H94.37V40.43h2.84L97.57,39h.06a3.12,3.12,0,0,0,1.19,1.23,3.64,3.64,0,0,0,1.77.45A2.73,2.73,0,0,0,103.16,39a11.66,11.66,0,0,0,.83-5V31.61A20.58,20.58,0,0,0,103.68,27.61Zm-3.16,6.24a19.73,19.73,0,0,1-.13,2.62,2.8,2.8,0,0,1-.47,1.34,1.1,1.1,0,0,1-.88.4,1.62,1.62,0,0,1-.78-.2,1.52,1.52,0,0,1-.58-.6V28.72a2,2,0,0,1,.6-1,1.31,1.31,0,0,1,.92-.41.91.91,0,0,1,.81.41,3.15,3.15,0,0,1,.4,1.38,27.41,27.41,0,0,1,.11,2.78Z"/></svg>